# xmcd
#
# Track frame offsets: 
#        150
#        12710
#        25772
#        40546
#        53531
#        69187
#        81352
#        94034
#        105019
#        116566
#        128917
#        143724
#        156176
#        168725
#        183481
#        193472
#        204224
#        218699
#        231468
#        243675
#        256900
#        271687
#        288049
#        301947
#        312985
#        326902
#        339342
#
# Disc length: 4666 seconds
#
# Revision: 0
# Processed by: cddbd v1.5.2PL0 Copyright (c) Steve Scherf et al.
# Submitted via: ExactAudioCopyFreeDBPlugin 1.0
#
DISCID=7812381b
DTITLE=Elmore James - Dust my Broom CD1 (Compilation Blues Characters)
DYEAR=1900
DGENRE=Blues
TTITLE0=Dust my broom
TTITLE1=Baby, what's wrong
TTITLE2=I believe
TTITLE3=Sinful women
TTITLE4=I held my baby last night
TTITLE5=Country boogie
TTITLE6=Early in the morning
TTITLE7=Can't stop lovin'
TTITLE8=Strange kinda' feeling
TTITLE9=Sho nuff I do
TTITLE10=1839 blues
TTITLE11=Standing at the crossroads
TTITLE12=Late hours at midnight
TTITLE13=Sunnyland
TTITLE14=Mean and evil
TTITLE15=No love in my heart
TTITLE16=Dust my blues
TTITLE17=I was a fool
TTITLE18=Blues before sunrise
TTITLE19=Goodbye baby
TTITLE20=Wild about you
TTITLE21=Long tall woman
TTITLE22=The twelve year old boy
TTITLE23=The twelve year old boy
TTITLE24=It hurts me too
TTITLE25=Cry for me baby
TTITLE26=Take me where you go
EXTD=
EXTT0=
EXTT1=
EXTT2=
EXTT3=
EXTT4=
EXTT5=
EXTT6=
EXTT7=
EXTT8=
EXTT9=
EXTT10=
EXTT11=
EXTT12=
EXTT13=
EXTT14=
EXTT15=
EXTT16=
EXTT17=
EXTT18=
EXTT19=
EXTT20=
EXTT21=
EXTT22=
EXTT23=
EXTT24=
EXTT25=
EXTT26=
PLAYORDER=
